<?xml version="1.0" ?><svg width="30px" height="30px" viewBox="0 0 2050 2050" xmlns="http://www.w3.org/2000/svg"><defs><style>.cls-1{fill:#fff;}.cls-2{fill:#ffc500;}.cls-3{fill:#ff9f1e;}.cls-4{fill:#ffe059;}.cls-5{fill:#ff4f4f;}.cls-6{fill:#00305f;}</style></defs><title/><g data-name="Layer 1" id="Layer_1"><rect class="cls-1" height="2040" width="2040" x="5" y="5"/></g><g data-name="Layer 3" id="Layer_3"><circle class="cls-2" cx="1025" cy="1025" r="613.7"/><path class="cls-3" d="M1068.5,1551.8c-339,0-613.7-274.8-613.7-613.7a613.5,613.5,0,0,1,44.4-229.8A610.7,610.7,0,0,0,411.3,1025c0,338.9,274.8,613.7,613.7,613.7,257.7,0,478.3-158.8,569.2-383.9C1486.8,1432.8,1291.5,1551.8,1068.5,1551.8Z"/><path class="cls-4" d="M1025,411.3A610.4,610.4,0,0,0,659.9,531.7a706.9,706.9,0,0,1,453.2-18.9,27.8,27.8,0,0,0-3.3,5.1c-18.2,33.9,18.9,89.1,82.7,123.3s130.4,34.6,148.6.8a38.6,38.6,0,0,0,3.7-10.5c165.2,128,271.9,328.1,272.9,553.1a613.3,613.3,0,0,0,21-159.6C1638.7,686.1,1363.9,411.3,1025,411.3Z"/><ellipse class="cls-4" cx="1339.4" cy="698.8" rx="30.8" ry="52.8" transform="translate(396.9 1879.5) rotate(-79)"/><ellipse class="cls-4" cx="1235.1" cy="718.7" rx="17.2" ry="25" transform="translate(-4.9 1429) rotate(-60)"/><path class="cls-5" d="M933.6,845.6a82.7,82.7,0,0,0-117,0,82.7,82.7,0,0,0-117.7.8c-31.7,32.5-30.5,84.9,1.7,117l90.9,91a35.2,35.2,0,0,0,49.6,0l85.8-85.9a74,74,0,0,0,6.7-6A82.6,82.6,0,0,0,933.6,845.6Z"/><path class="cls-5" d="M1116.4,845.6a82.7,82.7,0,0,1,117,0,82.7,82.7,0,0,1,117.7.8c31.7,32.5,30.5,84.9-1.7,117l-90.9,91a35.2,35.2,0,0,1-49.6,0l-85.8-85.9a74,74,0,0,1-6.7-6A82.6,82.6,0,0,1,1116.4,845.6Z"/><circle class="cls-1" cx="892.2" cy="878.4" r="21.4"/><circle class="cls-1" cx="1319.1" cy="878.4" r="21.4"/><path class="cls-6" d="M1022.8,1336.3a361.1,361.1,0,0,1-159.7-37.2c-48.5-23.6-92.1-57.4-129.5-100.5a30,30,0,0,1,45.3-39.3c65.7,75.5,152.3,117,243.9,117,47.2,0,92.9-10.9,136-32.4s79.7-51.1,112-89.5a30,30,0,0,1,45.9,38.6c-37.6,44.7-81.7,79.9-131.1,104.5A360.5,360.5,0,0,1,1022.8,1336.3Z"/></g></svg>