<svg id="visual" viewBox="0 0 900 600" width="900" height="600" xmlns="http://www.w3.org/2000/svg" xmlns:xlink="http://www.w3.org/1999/xlink" version="1.1"><g stroke-width="1" stroke-linejoin="bevel"><path d="M416 292L504 300L440 217Z" fill="#6667ab" stroke="#6667ab"></path><path d="M504 300L495 203L440 217Z" fill="#7c7ab2" stroke="#7c7ab2"></path><path d="M504 300L565 203L495 203Z" fill="#7c7ab2" stroke="#7c7ab2"></path><path d="M416 292L436 389L504 300Z" fill="#8784b5" stroke="#8784b5"></path><path d="M436 389L537 407L504 300Z" fill="#918eb9" stroke="#918eb9"></path><path d="M504 300L620 320L565 203Z" fill="#a5a2bf" stroke="#a5a2bf"></path><path d="M495 203L403 115L440 217Z" fill="#7170ae" stroke="#7170ae"></path><path d="M440 217L304 308L416 292Z" fill="#918eb9" stroke="#918eb9"></path><path d="M493 63L403 115L495 203Z" fill="#afacc3" stroke="#afacc3"></path><path d="M264 171L304 308L440 217Z" fill="#b9b7c6" stroke="#b9b7c6"></path><path d="M416 292L304 308L436 389Z" fill="#b9b7c6" stroke="#b9b7c6"></path><path d="M537 407L620 320L504 300Z" fill="#918eb9" stroke="#918eb9"></path><path d="M526 489L567 424L537 407Z" fill="#6667ab" stroke="#6667ab"></path><path d="M537 407L567 424L620 320Z" fill="#7170ae" stroke="#7170ae"></path><path d="M565 203L493 63L495 203Z" fill="#b9b7c6" stroke="#b9b7c6"></path><path d="M688 392L675 305L620 320Z" fill="#a5a2bf" stroke="#a5a2bf"></path><path d="M620 320L675 305L565 203Z" fill="#b9b7c6" stroke="#b9b7c6"></path><path d="M565 203L609 92L493 63Z" fill="#7170ae" stroke="#7170ae"></path><path d="M373 0L340 87L403 115Z" fill="#b9b7c6" stroke="#b9b7c6"></path><path d="M403 115L264 171L440 217Z" fill="#a5a2bf" stroke="#a5a2bf"></path><path d="M340 87L264 171L403 115Z" fill="#7170ae" stroke="#7170ae"></path><path d="M702 115L609 92L565 203Z" fill="#9b98bc" stroke="#9b98bc"></path><path d="M264 171L241 320L304 308Z" fill="#918eb9" stroke="#918eb9"></path><path d="M296 464L385 481L436 389Z" fill="#7c7ab2" stroke="#7c7ab2"></path><path d="M257 378L436 389L304 308Z" fill="#9b98bc" stroke="#9b98bc"></path><path d="M436 389L526 489L537 407Z" fill="#b9b7c6" stroke="#b9b7c6"></path><path d="M385 481L526 489L436 389Z" fill="#9b98bc" stroke="#9b98bc"></path><path d="M567 424L688 392L620 320Z" fill="#c2c1c9" stroke="#c2c1c9"></path><path d="M241 320L257 378L304 308Z" fill="#a5a2bf" stroke="#a5a2bf"></path><path d="M526 489L566 488L567 424Z" fill="#cccccc" stroke="#cccccc"></path><path d="M663 520L688 392L567 424Z" fill="#7170ae" stroke="#7170ae"></path><path d="M257 378L296 464L436 389Z" fill="#c2c1c9" stroke="#c2c1c9"></path><path d="M201 68L213 182L264 171Z" fill="#a5a2bf" stroke="#a5a2bf"></path><path d="M264 171L213 182L241 320Z" fill="#8784b5" stroke="#8784b5"></path><path d="M241 320L219 366L257 378Z" fill="#a5a2bf" stroke="#a5a2bf"></path><path d="M257 378L179 479L296 464Z" fill="#8784b5" stroke="#8784b5"></path><path d="M121 344L219 366L241 320Z" fill="#cccccc" stroke="#cccccc"></path><path d="M580 0L478 0L493 63Z" fill="#7c7ab2" stroke="#7c7ab2"></path><path d="M493 63L373 0L403 115Z" fill="#7c7ab2" stroke="#7c7ab2"></path><path d="M478 0L373 0L493 63Z" fill="#8784b5" stroke="#8784b5"></path><path d="M340 87L201 68L264 171Z" fill="#7c7ab2" stroke="#7c7ab2"></path><path d="M740 207L702 115L565 203Z" fill="#6667ab" stroke="#6667ab"></path><path d="M609 92L580 0L493 63Z" fill="#cccccc" stroke="#cccccc"></path><path d="M740 207L565 203L675 305Z" fill="#918eb9" stroke="#918eb9"></path><path d="M761 306L740 207L675 305Z" fill="#cccccc" stroke="#cccccc"></path><path d="M719 0L580 0L609 92Z" fill="#a5a2bf" stroke="#a5a2bf"></path><path d="M373 0L343 0L340 87Z" fill="#a5a2bf" stroke="#a5a2bf"></path><path d="M688 392L761 306L675 305Z" fill="#a5a2bf" stroke="#a5a2bf"></path><path d="M566 488L663 520L567 424Z" fill="#9b98bc" stroke="#9b98bc"></path><path d="M688 392L764 415L761 306Z" fill="#918eb9" stroke="#918eb9"></path><path d="M595 600L663 520L566 488Z" fill="#c2c1c9" stroke="#c2c1c9"></path><path d="M595 600L566 488L526 489Z" fill="#7c7ab2" stroke="#7c7ab2"></path><path d="M217 0L201 68L340 87Z" fill="#6667ab" stroke="#6667ab"></path><path d="M213 182L130 244L241 320Z" fill="#7170ae" stroke="#7170ae"></path><path d="M74 131L130 244L213 182Z" fill="#918eb9" stroke="#918eb9"></path><path d="M409 600L496 600L385 481Z" fill="#7c7ab2" stroke="#7c7ab2"></path><path d="M385 481L496 600L526 489Z" fill="#b9b7c6" stroke="#b9b7c6"></path><path d="M663 520L764 415L688 392Z" fill="#7c7ab2" stroke="#7c7ab2"></path><path d="M291 600L409 600L385 481Z" fill="#7170ae" stroke="#7170ae"></path><path d="M130 244L121 344L241 320Z" fill="#7170ae" stroke="#7170ae"></path><path d="M219 366L179 479L257 378Z" fill="#8784b5" stroke="#8784b5"></path><path d="M296 464L291 600L385 481Z" fill="#918eb9" stroke="#918eb9"></path><path d="M95 415L179 479L219 366Z" fill="#c2c1c9" stroke="#c2c1c9"></path><path d="M496 600L595 600L526 489Z" fill="#918eb9" stroke="#918eb9"></path><path d="M663 520L765 513L764 415Z" fill="#afacc3" stroke="#afacc3"></path><path d="M343 0L217 0L340 87Z" fill="#6667ab" stroke="#6667ab"></path><path d="M201 68L74 131L213 182Z" fill="#8784b5" stroke="#8784b5"></path><path d="M792 0L719 0L702 115Z" fill="#c2c1c9" stroke="#c2c1c9"></path><path d="M702 115L719 0L609 92Z" fill="#918eb9" stroke="#918eb9"></path><path d="M828 116L702 115L740 207Z" fill="#cccccc" stroke="#cccccc"></path><path d="M179 479L291 600L296 464Z" fill="#918eb9" stroke="#918eb9"></path><path d="M900 202L836 197L900 338Z" fill="#b9b7c6" stroke="#b9b7c6"></path><path d="M761 306L836 197L740 207Z" fill="#918eb9" stroke="#918eb9"></path><path d="M670 600L765 513L663 520Z" fill="#918eb9" stroke="#918eb9"></path><path d="M900 338L836 197L761 306Z" fill="#cccccc" stroke="#cccccc"></path><path d="M595 600L670 600L663 520Z" fill="#a5a2bf" stroke="#a5a2bf"></path><path d="M836 197L828 116L740 207Z" fill="#8784b5" stroke="#8784b5"></path><path d="M121 344L95 415L219 366Z" fill="#8784b5" stroke="#8784b5"></path><path d="M179 479L178 600L291 600Z" fill="#7c7ab2" stroke="#7c7ab2"></path><path d="M0 378L95 415L121 344Z" fill="#c2c1c9" stroke="#c2c1c9"></path><path d="M73 0L74 131L201 68Z" fill="#6667ab" stroke="#6667ab"></path><path d="M130 244L0 330L121 344Z" fill="#c2c1c9" stroke="#c2c1c9"></path><path d="M828 116L792 0L702 115Z" fill="#a5a2bf" stroke="#a5a2bf"></path><path d="M0 378L88 467L95 415Z" fill="#cccccc" stroke="#cccccc"></path><path d="M95 415L88 467L179 479Z" fill="#cccccc" stroke="#cccccc"></path><path d="M88 467L178 600L179 479Z" fill="#b9b7c6" stroke="#b9b7c6"></path><path d="M900 338L761 306L900 370Z" fill="#afacc3" stroke="#afacc3"></path><path d="M836 197L900 141L828 116Z" fill="#b9b7c6" stroke="#b9b7c6"></path><path d="M828 116L900 0L792 0Z" fill="#7170ae" stroke="#7170ae"></path><path d="M900 370L761 306L764 415Z" fill="#9b98bc" stroke="#9b98bc"></path><path d="M900 513L900 370L764 415Z" fill="#8784b5" stroke="#8784b5"></path><path d="M900 202L900 141L836 197Z" fill="#afacc3" stroke="#afacc3"></path><path d="M0 168L0 330L130 244Z" fill="#6667ab" stroke="#6667ab"></path><path d="M217 0L73 0L201 68Z" fill="#8784b5" stroke="#8784b5"></path><path d="M74 131L0 168L130 244Z" fill="#7170ae" stroke="#7170ae"></path><path d="M0 63L0 168L74 131Z" fill="#6667ab" stroke="#6667ab"></path><path d="M0 330L0 378L121 344Z" fill="#9b98bc" stroke="#9b98bc"></path><path d="M88 467L61 600L178 600Z" fill="#8784b5" stroke="#8784b5"></path><path d="M670 600L817 600L765 513Z" fill="#b9b7c6" stroke="#b9b7c6"></path><path d="M765 513L900 513L764 415Z" fill="#cccccc" stroke="#cccccc"></path><path d="M817 600L900 513L765 513Z" fill="#9b98bc" stroke="#9b98bc"></path><path d="M73 0L0 63L74 131Z" fill="#c2c1c9" stroke="#c2c1c9"></path><path d="M900 141L900 0L828 116Z" fill="#b9b7c6" stroke="#b9b7c6"></path><path d="M0 378L0 494L88 467Z" fill="#c2c1c9" stroke="#c2c1c9"></path><path d="M0 494L61 600L88 467Z" fill="#b9b7c6" stroke="#b9b7c6"></path><path d="M73 0L0 0L0 63Z" fill="#a5a2bf" stroke="#a5a2bf"></path><path d="M817 600L900 600L900 513Z" fill="#8784b5" stroke="#8784b5"></path><path d="M0 494L0 600L61 600Z" fill="#afacc3" stroke="#afacc3"></path></g></svg>